<svg xmlns="http://www.w3.org/2000/svg" viewBox="0 0 98.64 138.04">
  <title>logo</title>
  <g id="Layer_2" data-name="Layer 2">
    <g id="Logo_1" data-name="Logo 1">
      <g>
        <polygon points="98.64 80.17 65.95 57.24 0 103.5 49.27 138.04 98.64 103.42 98.64 80.17" fill="#f95451"/>
        <path id="Rectangle_3_copy" data-name="Rectangle 3 copy" d="M0,103.49,66,57.24l17.2,12.07" opacity="0.35"/>
        <polygon points="69.56 114.87 54.79 106.95 41.58 113.04 28.19 105.99 19.05 110.96 0 103.5 49.27 138.04 98.64 103.42 80.75 108.23 69.56 114.87" fill="#d1a16d"/>
        <polygon points="49.32 128.78 36.06 128.78 49.32 138.04 62.47 128.78 49.32 128.78" fill="#333"/>
        <polygon points="78.91 0 78.91 15.78 59.19 15.78 59.19 0 39.46 0 39.46 15.78 19.73 15.78 19.73 0 0.1 0 0 103.5 98.64 34.33 98.64 0 78.91 0" fill="#f95451"/>
      </g>
    </g>
  </g>
</svg>
